{
  "accessors": [
    {
      "bufferView": 3,
      "componentType": 5126,
      "count": 2883,
      "max": [
        63.75886154174805,
        133.9449920654297,
        30.389179229736328
      ],
      "min": [
        -63.75886154174805,
        0.09784100204706192,
        -69.67941284179688
      ],
      "type": "VEC3"
    },
    {
      "bufferView": 3,
      "byteOffset": 34596,
      "componentType": 5126,
      "count": 2883,
      "max": [
        0.999003529548645,
        0.9995735287666321,
        0.9986158013343811
      ],
      "min": [
        -0.999003529548645,
        -0.9999880790710449,
        -0.9999437928199768
      ],
      "type": "VEC3"
    },
    {
      "bufferView": 2,
      "componentType": 5126,
      "count": 2883,
      "max": [
        0.998099148273468,
        0.9976675510406494
      ],
      "min": [
        0.002508360892534256,
        0.0041084885597229
      ],
      "type": "VEC2"
    },
    {
      "bufferView": 2,
      "byteOffset": 23064,
      "componentType": 5126,
      "count": 2883,
      "max": [
        0.9903039932250977,
        0.9946640133857727
      ],
      "min": [
        0.007245000451803207,
        0.0075530000030994415
      ],
      "type": "VEC2"
    },
    {
      "bufferView": 1,
      "componentType": 5125,
      "count": 13692,
      "type": "SCALAR"
    },
    {
      "bufferView": 3,
      "byteOffset": 69192,
      "componentType": 5126,
      "count": 162,
      "max": [
        15.706132888793945,
        122.16873168945313,
        20.428159713745117
      ],
      "min": [
        -15.706132888793945,
        106.32422637939453,
        11.780258178710938
      ],
      "type": "VEC3"
    },
    {
      "bufferView": 3,
      "byteOffset": 71136,
      "componentType": 5126,
      "count": 162,
      "max": [
        0.9858281016349792,
        0.9867166876792908,
        0.9999994039535522
      ],
      "min": [
        -0.985828161239624,
        -0.9866132140159607,
        0.15777252614498138
      ],
      "type": "VEC3"
    },
    {
      "bufferView": 2,
      "byteOffset": 46128,
      "componentType": 5126,
      "count": 162,
      "max": [
        0.9876189231872559,
        0.9933378100395203
      ],
      "min": [
        0.001309037208557129,
        0.006662189960479736
      ],
      "type": "VEC2"
    },
    {
      "bufferView": 1,
      "byteOffset": 54768,
      "componentType": 5125,
      "count": 864,
      "type": "SCALAR"
    },
    {
      "bufferView": 3,
      "byteOffset": 73080,
      "componentType": 5126,
      "count": 291,
      "max": [
        10.027267456054688,
        101.04871368408203,
        24.688032150268555
      ],
      "min": [
        -10.027267456054688,
        90.75969696044922,
        9.285972595214844
      ],
      "type": "VEC3"
    },
    {
      "bufferView": 3,
      "byteOffset": 76572,
      "componentType": 5126,
      "count": 291,
      "max": [
        0.9947604537010193,
        0.9998090267181396,
        0.9997751116752625
      ],
      "min": [
        -0.9947604537010193,
        -0.9993168115615845,
        -0.9943878650665283
      ],
      "type": "VEC3"
    },
    {
      "bufferView": 2,
      "byteOffset": 47424,
      "componentType": 5126,
      "count": 291,
      "max": [
        0.9933657050132751,
        0.9939895868301392
      ],
      "min": [
        0.7168447375297546,
        0.41514110565185547
      ],
      "type": "VEC2"
    },
    {
      "bufferView": 2,
      "byteOffset": 49752,
      "componentType": 5126,
      "count": 291,
      "max": [
        0.7043731808662415,
        0.36941587924957275
      ],
      "min": [
        0.294462114572525,
        0.06954896450042725
      ],
      "type": "VEC2"
    },
    {
      "bufferView": 1,
      "byteOffset": 58224,
      "componentType": 5125,
      "count": 1224,
      "type": "SCALAR"
    },
    {
      "bufferView": 5,
      "componentType": 5126,
      "count": 106,
      "max": [
        1.0,
        0.301718145608902,
        1.0,
        0.0,
        1.0,
        1.0,
        0.5388405919075012,
        0.0,
        1.0,
        1.0,
        1.0,
        0.0,
        64.99336242675781,
        101.93282318115234,
        76.02976989746094,
        1.0
      ],
      "min": [
        -1.0,
        -0.6435902118682861,
        -1.0,
        0.0,
        -1.0,
        -1.0,
        -0.538840651512146,
        0.0,
        -1.0,
        -1.0,
        -1.0,
        0.0,
        -64.99343872070313,
        -128.63754272460938,
        -76.02976989746094,
        1.0
      ],
      "type": "MAT4"
    },
    {
      "bufferView": 0,
      "componentType": 5123,
      "count": 2883,
      "type": "VEC4"
    },
    {
      "bufferView": 4,
      "componentType": 5126,
      "count": 2883,
      "max": [
        1.0,
        0.5,
        0.3151863217353821,
        0.22633327543735504
      ],
      "min": [
        0.267282098531723,
        0.0,
        0.0,
        0.0
      ],
      "type": "VEC4"
    },
    {
      "bufferView": 0,
      "byteOffset": 23064,
      "componentType": 5123,
      "count": 162,
      "type": "VEC4"
    },
    {
      "bufferView": 4,
      "byteOffset": 46128,
      "componentType": 5126,
      "count": 162,
      "max": [
        1.0,
        0.0,
        0.0,
        0.0
      ],
      "min": [
        1.0,
        0.0,
        0.0,
        0.0
      ],
      "type": "VEC4"
    },
    {
      "bufferView": 0,
      "byteOffset": 24360,
      "componentType": 5123,
      "count": 291,
      "type": "VEC4"
    },
    {
      "bufferView": 4,
      "byteOffset": 48720,
      "componentType": 5126,
      "count": 291,
      "max": [
        1.0,
        0.2809196412563324,
        0.04099803790450096,
        0.0
      ],
      "min": [
        0.7190803289413452,
        0.0,
        0.0,
        0.0
      ],
      "type": "VEC4"
    }
  ],
  "asset": {
    "extras": {
      "author": "malwaredi9t (https://sketchfab.com/malwaredi9t)",
      "license": "CC-BY-4.0 (http://creativecommons.org/licenses/by/4.0/)",
      "source": "https://sketchfab.com/3d-models/talking-tom-adult-my-talking-tom-837c60f7d71943328f1fe18e21e6ed2d",
      "title": "Talking_tom_adult_my_talking_tom"
    },
    "generator": "Sketchfab-16.73.0",
    "version": "2.0"
  },
  "bufferViews": [
    {
      "buffer": 0,
      "byteLength": 26688,
      "byteStride": 8,
      "name": "shortBufferViews",
      "target": 34962
    },
    {
      "buffer": 0,
      "byteLength": 63120,
      "byteOffset": 26688,
      "name": "floatBufferViews",
      "target": 34963
    },
    {
      "buffer": 0,
      "byteLength": 52080,
      "byteOffset": 89808,
      "byteStride": 8,
      "name": "floatBufferViews",
      "target": 34962
    },
    {
      "buffer": 0,
      "byteLength": 80064,
      "byteOffset": 141888,
      "byteStride": 12,
      "name": "floatBufferViews",
      "target": 34962
    },
    {
      "buffer": 0,
      "byteLength": 53376,
      "byteOffset": 221952,
      "byteStride": 16,
      "name": "floatBufferViews",
      "target": 34962
    },
    {
      "buffer": 0,
      "byteLength": 6784,
      "byteOffset": 275328,
      "name": "floatBufferViews"
    }
  ],
  "buffers": [
    {
      "byteLength": 282112,
      "uri": "scene.bin"
    }
  ],
  "images": [
    {
      "uri": "textures/MAT_body_baseColor.png"
    },
    {
      "uri": "textures/MAT_eyes_baseColor.png"
    }
  ],
  "materials": [
    {
      "doubleSided": true,
      "name": "MAT_body",
      "pbrMetallicRoughness": {
        "baseColorTexture": {
          "index": 0
        },
        "metallicFactor": 0.0,
        "roughnessFactor": 0.957705
      }
    },
    {
      "doubleSided": true,
      "name": "MAT_eyes",
      "pbrMetallicRoughness": {
        "baseColorTexture": {
          "index": 1
        },
        "metallicFactor": 0.0,
        "roughnessFactor": 0.957705
      }
    }
  ],
  "meshes": [
    {
      "name": "Object_0",
      "primitives": [
        {
          "attributes": {
            "JOINTS_0": 15,
            "NORMAL": 1,
            "POSITION": 0,
            "TEXCOORD_0": 2,
            "TEXCOORD_1": 3,
            "WEIGHTS_0": 16
          },
          "indices": 4,
          "material": 0,
          "mode": 4
        }
      ]
    },
    {
      "name": "Object_1",
      "primitives": [
        {
          "attributes": {
            "JOINTS_0": 17,
            "NORMAL": 6,
            "POSITION": 5,
            "TEXCOORD_0": 7,
            "WEIGHTS_0": 18
          },
          "indices": 8,
          "material": 1,
          "mode": 4
        }
      ]
    },
    {
      "name": "Object_2",
      "primitives": [
        {
          "attributes": {
            "JOINTS_0": 19,
            "NORMAL": 10,
            "POSITION": 9,
            "TEXCOORD_0": 11,
            "TEXCOORD_1": 12,
            "WEIGHTS_0": 20
          },
          "indices": 13,
          "material": 0,
          "mode": 4
        }
      ]
    }
  ],
  "nodes": [
    {
      "children": [
        1
      ],
      "matrix": [
        1.0,
        0.0,
        0.0,
        0.0,
        0.0,
        2.220446049250313e-16,
        -1.0,
        0.0,
        0.0,
        1.0,
        2.220446049250313e-16,
        0.0,
        0.0,
        0.0,
        0.0,
        1.0
      ],
      "name": "Sketchfab_model"
    },
    {
      "children": [
        2
      ],
      "name": "root"
    },
    {
      "children": [
        3
      ],
      "matrix": [
        1.0,
        0.0,
        0.0,
        0.0,
        0.0,
        2.220446049250313e-16,
        1.0,
        0.0,
        0.0,
        -1.0,
        2.220446049250313e-16,
        0.0,
        0.0,
        0.0,
        0.0,
        1.0
      ],
      "name": "GLTF_SceneRootNode"
    },
    {
      "children": [
        4
      ],
      "matrix": [
        1.0,
        0.0,
        0.0,
        0.0,
        0.0,
        2.220446049250313e-16,
        -1.0,
        0.0,
        0.0,
        1.0,
        2.220446049250313e-16,
        0.0,
        0.0,
        0.0,
        0.0,
        1.0
      ],
      "name": "Sketchfab_model_0"
    },
    {
      "children": [
        5
      ],
      "matrix": [
        0.009999999776482582,
        0.0,
        0.0,
        0.0,
        0.0,
        0.0,
        0.009999999776482582,
        0.0,
        0.0,
        -0.009999999776482582,
        0.0,
        0.0,
        0.0,
        0.0,
        0.0,
        1.0
      ],
      "name": "f69288e875cf4064bf57cac8bdf4e494.fbx_1"
    },
    {
      "children": [
        6
      ],
      "name": "RootNode_2"
    },
    {
      "children": [
        7
      ],
      "name": "TomAdult (merge)_3"
    },
    {
      "children": [
        8
      ],
      "name": "TomAdult_4"
    },
    {
      "children": [
        9
      ],
      "name": "Object_5_5"
    },
    {
      "children": [
        10,
        118,
        121,
        124,
        116,
        119,
        122
      ],
      "name": "GLTF_created_0"
    },
    {
      "children": [
        11
      ],
      "name": "GLTF_created_0_rootJoint"
    },
    {
      "children": [
        12
      ],
      "name": "_rootJoint_6"
    },
    {
      "children": [
        13
      ],
      "name": "C_skin_joints__SET_02_11"
    },
    {
      "children": [
        14,
        18,
        101,
        107,
        112
      ],
      "name": "c_spine_00_skn_03_12",
      "translation": [
        0.0,
        39.19139099121094,
        0.0
      ]
    },
    {
      "children": [
        15,
        16,
        17
      ],
      "name": "c_root_01_skn_04_13",
      "rotation": [
        0.0,
        0.0,
        1.0,
        6.123234262925839e-17
      ],
      "translation": [
        -7.715563118232348e-31,
        -5.835597991943359,
        0.0
      ]
    },
    {
      "name": "SLOT_TOM_CLOTHES_05_14",
      "rotation": [
        0.0,
        0.0,
        1.0,
        -6.123234262925839e-17
      ]
    },
    {
      "name": "SLOT_TOM_CLOTHES_anchor_06_15",
      "rotation": [
        0.0,
        0.0,
        1.0,
        -6.123234262925839e-17
      ],
      "translation": [
        3.3404579162597656,
        -20.14229965209961,
        12.959210395812988
      ]
    },
    {
      "name": "SLOT_TOM_FUR_07_16",
      "rotation": [
        0.0,
        0.0,
        1.0,
        -6.123234262925839e-17
      ]
    },
    {
      "children": [
        19
      ],
      "name": "c_spine_02_skn_08_17",
      "translation": [
        -4.930381245378499e-32,
        12.455450057983398,
        0.0
      ]
    },
    {
      "children": [
        20
      ],
      "name": "c_spine_03_skn_09_18",
      "translation": [
        -2.4651900349420742e-32,
        6.227724075317383,
        0.0
      ]
    },
    {
      "children": [
        21,
        81,
        91
      ],
      "name": "c_chest_00_skn_010_19",
      "rotation": [
        -3.975460849403589e-09,
        -0.0,
        0.0,
        1.0
      ],
      "translation": [
        7.395570986446986e-32,
        6.227724075317383,
        0.0
      ]
    },
    {
      "children": [
        22
      ],
      "name": "c_neck_00_skn_011_20",
      "rotation": [
        0.11320321261882782,
        0.0,
        0.0,
        0.9935718774795532
      ],
      "translation": [
        1.894899009415359e-31,
        17.50806999206543,
        -3.086477041244507
      ]
    },
    {
      "children": [
        23
      ],
      "name": "c_neck_01_skn_012_21",
      "translation": [
        0.0,
        5.64182186126709,
        0.0
      ]
    },
    {
      "children": [
        24
      ],
      "name": "c_head_00_skn_013_22",
      "rotation": [
        -0.11320321261882782,
        -0.0,
        0.0,
        0.9935718774795532
      ],
      "translation": [
        0.0,
        5.64182186126709,
        0.0
      ]
    },
    {
      "children": [
        25,
        29,
        30,
        33,
        42,
        43,
        44,
        45,
        46,
        47,
        48,
        49,
        50,
        51,
        52,
        53,
        54,
        55,
        56,
        58,
        60,
        61,
        62,
        63,
        64,
        65,
        66,
        67,
        69,
        70,
        71,
        72,
        73,
        74,
        75,
        77,
        79,
        80
      ],
      "name": "c_faceHolder_00_014_23",
      "translation": [
        0.0,
        0.0,
        4.440892098500626e-16
      ]
    },
    {
      "children": [
        26,
        27
      ],
      "name": "c_jaw_skn_015_24",
      "translation": [
        -7.156011339048973e-09,
        11.677332878112793,
        0.08080333471298218
      ]
    },
    {
      "name": "c_chin_skn_016_25",
      "rotation": [
        0.23683816194534302,
        0.0,
        0.0,
        0.9715490937232971
      ],
      "translation": [
        -8.271806125530277e-25,
        -14.845080375671387,
        20.503320693969727
      ]
    },
    {
      "children": [
        28
      ],
      "name": "c_mouthLowLips_skn_017_26",
      "translation": [
        0.0,
        -7.67379903793335,
        26.406213760375977
      ]
    },
    {
      "name": "c_mouthLowLipsRoll_skn_018_27",
      "translation": [
        0.0,
        0.27049916982650757,
        7.105427357601002e-15
      ]
    },
    {
      "name": "c_lowTeeth_skn_019_28",
      "translation": [
        -7.156011339048973e-09,
        0.9575931429862976,
        19.3394718170166
      ]
    },
    {
      "children": [
        31
      ],
      "name": "c_toungeMain_skn_020_29",
      "translation": [
        -7.156011339048973e-09,
        -0.08615715056657791,
        11.938432693481445
      ]
    },
    {
      "children": [
        32
      ],
      "name": "c_tounge00_skn_021_30",
      "rotation": [
        -0.16336853802204132,
        -0.0,
        0.0,
        0.986565113067627
      ],
      "translation": [
        8.271806125530277e-25,
        1.0473840236663818,
        3.552713678800501e-15
      ]
    },
    {
      "name": "c_tounge01_skn_022_31",
      "rotation": [
        0.1426224261522293,
        0.0,
        0.0,
        0.989777147769928
      ],
      "translation": [
        2.481541837659083e-24,
        7.105427357601002e-14,
        4.928771018981934
      ]
    },
    {
      "children": [
        34,
        35,
        37,
        38,
        39,
        40,
        41
      ],
      "name": "c_upJaw_skn_023_32",
      "translation": [
        -7.156011339048973e-09,
        15.693997383117676,
        2.37604022026062
      ]
    },
    {
      "name": "c_brow_skn_024_33",
      "rotation": [
        -0.1985127031803131,
        -0.0,
        0.0,
        0.980098307132721
      ],
      "translation": [
        0.0,
        15.808279991149902,
        17.401029586791992
      ]
    },
    {
      "children": [
        36
      ],
      "name": "c_mouthUpLips_skn_025_34",
      "translation": [
        0.0,
        -8.648578643798828,
        24.584131240844727
      ]
    },
    {
      "name": "c_mouthUpLipsRoll_skn_026_35",
      "translation": [
        -8.271806125530277e-25,
        -0.3270992338657379,
        3.552713678800501e-15
      ]
    },
    {
      "name": "c_noseBridge_skn_027_36",
      "rotation": [
        -0.12619896233081818,
        -0.0,
        0.0,
        0.992004930973053
      ],
      "translation": [
        0.0,
        6.574865818023682,
        20.173189163208008
      ]
    },
    {
      "name": "SLOT_TOM_EYEWEAR_028_37",
      "translation": [
        0.0,
        -1.9073486328125e-06,
        0.0
      ]
    },
    {
      "name": "SLOT_TOM_EYEWEAR_anchor_029_38",
      "translation": [
        12.09076976776123,
        4.559013843536377,
        17.997859954833984
      ]
    },
    {
      "name": "SLOT_TOM_HAT_030_39",
      "translation": [
        0.0,
        -1.9073486328125e-06,
        0.0
      ]
    },
    {
      "name": "SLOT_TOM_HAT_anchor_031_40",
      "translation": [
        0.31535059213638306,
        25.54132080078125,
        0.3255000114440918
      ]
    },
    {
      "name": "c_upTeeth_skn_032_41",
      "translation": [
        -7.156011339048973e-09,
        6.071297645568848,
        19.3394718170166
      ]
    },
    {
      "name": "l_browIn_skn_033_42",
      "rotation": [
        -0.08715574443340302,
        -0.0,
        0.0,
        0.9961947202682495
      ],
      "translation": [
        4.459823131561279,
        34.937618255615234,
        18.01569938659668
      ]
    },
    {
      "name": "l_browMid_skn_034_43",
      "rotation": [
        -0.08715574443340302,
        -0.0,
        0.0,
        0.9961947202682495
      ],
      "translation": [
        10.897899627685547,
        32.366119384765625,
        16.190990447998047
      ]
    },
    {
      "name": "l_browOut_skn_035_44",
      "rotation": [
        -0.04361938685178757,
        -0.0,
        0.0,
        0.9990482330322266
      ],
      "translation": [
        13.558629989624023,
        27.4047908782959,
        12.716739654541016
      ]
    },
    {
      "name": "l_cheek_skn_036_45",
      "rotation": [
        -0.0,
        0.7071068286895752,
        0.0,
        0.7071068286895752
      ],
      "translation": [
        18.3602294921875,
        7.25071907043457,
        13.813429832458496
      ]
    },
    {
      "name": "l_cheekBone_skn_037_46",
      "rotation": [
        0.0,
        0.289867103099823,
        0.0,
        0.9570668935775757
      ],
      "translation": [
        16.959489822387695,
        14.670060157775879,
        20.30998992919922
      ]
    },
    {
      "name": "l_ear_skn_038_47",
      "rotation": [
        0.06803644448518753,
        0.015395074151456356,
        0.22015982866287231,
        0.9729664325714111
      ],
      "translation": [
        14.222909927368164,
        28.544349670410156,
        -1.5124390125274658
      ]
    },
    {
      "name": "l_eyeAim_skn_039_48",
      "rotation": [
        1.4922899409784175e-16,
        0.1331213414669037,
        1.0648656808491096e-15,
        0.9910997748374939
      ],
      "translation": [
        7.864872932434082,
        21.68783950805664,
        12.910639762878418
      ]
    },
    {
      "name": "l_eyelidDwnIn_skn_040_49",
      "rotation": [
        0.0,
        -0.044491205364465714,
        0.0,
        0.9990097880363464
      ],
      "translation": [
        6.6814727783203125,
        18.174009323120117,
        19.53091049194336
      ]
    },
    {
      "name": "l_eyelidDwnOut_skn_041_50",
      "rotation": [
        0.0,
        0.2512247860431671,
        0.0,
        0.9679287672042847
      ],
      "translation": [
        11.757599830627441,
        18.85158920288086,
        19.354290008544922
      ]
    },
    {
      "name": "l_eyelidUpIn_skn_042_51",
      "rotation": [
        0.0,
        0.028793949633836746,
        0.0,
        0.9995853900909424
      ],
      "translation": [
        6.205208778381348,
        25.60965919494629,
        19.620460510253906
      ]
    },
    {
      "name": "l_eyelidUpOut_skn_043_52",
      "rotation": [
        0.0,
        0.1331213414669037,
        0.0,
        0.9910997748374939
      ],
      "translation": [
        11.419079780578613,
        24.917579650878906,
        18.85272979736328
      ]
    },
    {
      "name": "l_innerCheek_skn_044_53",
      "rotation": [
        0.0,
        0.06627389788627625,
        0.0,
        0.9978014826774597
      ],
      "translation": [
        8.593334197998047,
        15.094940185546875,
        23.671640396118164
      ]
    },
    {
      "name": "l_mouthCorner_skn_045_54",
      "rotation": [
        0.0,
        0.08367784321308136,
        0.0,
        0.996492862701416
      ],
      "translation": [
        9.038874626159668,
        4.762209892272949,
        24.067829132080078
      ]
    },
    {
      "children": [
        57
      ],
      "name": "l_mouthLowLips_skn_046_55",
      "rotation": [
        0.0,
        0.10799936205148697,
        0.0,
        0.9941509366035461
      ],
      "translation": [
        4.84452486038208,
        3.838460922241211,
        25.706289291381836
      ]
    },
    {
      "name": "l_mouthLowLipsRoll_skn_047_56",
      "rotation": [
        0.0,
        0.0,
        2.0679515313825692e-25,
        1.0
      ],
      "translation": [
        0.0,
        0.27049916982650757,
        -1.0658141036401503e-14
      ]
    },
    {
      "children": [
        59
      ],
      "name": "l_mouthUpLips_skn_048_57",
      "rotation": [
        0.0,
        0.10799936205148697,
        0.0,
        0.9941509366035461
      ],
      "translation": [
        4.847221851348877,
        6.679102897644043,
        26.494909286499023
      ]
    },
    {
      "name": "l_mouthUpLipsRoll_skn_049_58",
      "rotation": [
        0.0,
        0.0,
        2.0679515313825692e-25,
        1.0
      ],
      "translation": [
        0.0,
        -0.3270992338657379,
        -7.105427357601002e-15
      ]
    },
    {
      "name": "l_nose_skn_050_59",
      "rotation": [
        3.4844023161467024e-26,
        0.15988120436668396,
        -2.151334868621529e-25,
        0.9871362447738647
      ],
      "translation": [
        3.7145090103149414,
        15.514579772949219,
        28.030229568481445
      ]
    },
    {
      "name": "r_browIn_skn_051_60",
      "rotation": [
        0.08715574443340302,
        0.0,
        0.0,
        0.9961947202682495
      ],
      "translation": [
        -4.459819793701172,
        34.937191009521484,
        18.015710830688477
      ]
    },
    {
      "name": "r_browMid_skn_00_61",
      "rotation": [
        0.08715574443340302,
        0.0,
        0.0,
        0.9961947202682495
      ],
      "translation": [
        -10.897899627685547,
        32.36619186401367,
        16.191009521484375
      ]
    },
    {
      "name": "r_browOut_skn_01_62",
      "rotation": [
        0.04361938685178757,
        0.0,
        0.0,
        0.9990482330322266
      ],
      "translation": [
        -13.558600425720215,
        27.405189514160156,
        12.716710090637207
      ]
    },
    {
      "name": "r_cheek_skn_052_63",
      "rotation": [
        -0.0,
        -0.7071068286895752,
        0.0,
        0.7071068286895752
      ],
      "translation": [
        -18.360200881958008,
        7.250692844390869,
        13.813409805297852
      ]
    },
    {
      "name": "r_cheekBone_skn_053_64",
      "rotation": [
        0.0,
        -0.289867103099823,
        0.0,
        0.9570668935775757
      ],
      "translation": [
        -16.95949935913086,
        14.67018985748291,
        20.31001091003418
      ]
    },
    {
      "name": "r_ear_skn_054_65",
      "rotation": [
        0.9729664325714111,
        -0.22015982866287231,
        0.015395074151456356,
        -0.06803644448518753
      ],
      "translation": [
        -14.222900390625,
        28.544189453125,
        -1.5124410390853882
      ]
    },
    {
      "children": [
        68
      ],
      "name": "r_eyeAim_skn_055_66",
      "rotation": [
        -1.911186412361112e-17,
        -0.1331213414669037,
        1.0746137595225858e-16,
        0.9910997748374939
      ],
      "translation": [
        -7.864870071411133,
        21.688190460205078,
        12.91061019897461
      ]
    },
    {
      "name": "SLOT_TOM_EYES_056_67",
      "rotation": [
        3.940078485697995e-09,
        0.1331213414669037,
        4.021037947055106e-10,
        0.9910997748374939
      ]
    },
    {
      "name": "r_eyelidDwnIn_skn_057_68",
      "rotation": [
        0.0,
        0.044491205364465714,
        0.0,
        0.9990097880363464
      ],
      "translation": [
        -6.681469917297363,
        18.174190521240234,
        19.53091049194336
      ]
    },
    {
      "name": "r_eyelidDwnOut_skn_058_69",
      "rotation": [
        0.0,
        -0.2512247860431671,
        0.0,
        0.9679287672042847
      ],
      "translation": [
        -11.757599830627441,
        18.8511905670166,
        19.35430908203125
      ]
    },
    {
      "name": "r_eyelidUpIn_skn_059_70",
      "rotation": [
        0.0,
        -0.028793949633836746,
        0.0,
        0.9995853900909424
      ],
      "translation": [
        -6.205210208892822,
        25.609189987182617,
        19.62051010131836
      ]
    },
    {
      "name": "r_eyelidUpOut_skn_060_71",
      "rotation": [
        0.0,
        -0.1331213414669037,
        0.0,
        0.9910997748374939
      ],
      "translation": [
        -11.419099807739258,
        24.917190551757813,
        18.852710723876953
      ]
    },
    {
      "name": "r_innerCheek_skn_061_72",
      "rotation": [
        0.0,
        -0.06627389788627625,
        0.0,
        0.9978014826774597
      ],
      "translation": [
        -8.593330383300781,
        15.095190048217773,
        23.67160987854004
      ]
    },
    {
      "name": "r_mouthCorner_skn_062_73",
      "rotation": [
        0.0,
        -0.08367784321308136,
        0.0,
        0.996492862701416
      ],
      "translation": [
        -9.038869857788086,
        4.762193202972412,
        24.06781005859375
      ]
    },
    {
      "children": [
        76
      ],
      "name": "r_mouthLowLips_skn_063_74",
      "rotation": [
        0.0,
        -0.10799936205148697,
        0.0,
        0.9941509366035461
      ],
      "translation": [
        -4.84453010559082,
        3.8384931087493896,
        25.706310272216797
      ]
    },
    {
      "name": "r_mouthLowLipsRoll_skn_064_75",
      "rotation": [
        0.0,
        -0.0,
        -2.0679515313825692e-25,
        1.0
      ],
      "translation": [
        8.881784197001252e-16,
        0.27049916982650757,
        3.552713678800501e-15
      ]
    },
    {
      "children": [
        78
      ],
      "name": "r_mouthUpLips_skn_065_76",
      "rotation": [
        0.0,
        -0.10799936205148697,
        0.0,
        0.9941509366035461
      ],
      "translation": [
        -4.847219944000244,
        6.679092884063721,
        26.494909286499023
      ]
    },
    {
      "name": "r_mouthUpLipsRoll_skn_066_77",
      "rotation": [
        0.0,
        -0.0,
        -2.0679515313825692e-25,
        1.0
      ],
      "translation": [
        -8.881784197001252e-16,
        -0.3270992338657379,
        -3.552713678800501e-15
      ]
    },
    {
      "name": "r_nose_skn_067_78",
      "rotation": [
        3.4844023161467024e-26,
        -0.15988120436668396,
        2.151334868621529e-25,
        0.9871362447738647
      ],
      "translation": [
        -3.714509963989258,
        15.514189720153809,
        28.030210494995117
      ]
    },
    {
      "name": "SLOT_TOM_EYES_anchor_068_79",
      "rotation": [
        3.975460849403589e-09,
        0.0,
        0.0,
        1.0
      ],
      "scale": [
        0.9979000091552734,
        1.0,
        0.972000002861023
      ],
      "translation": [
        -14.027210235595703,
        20.29121971130371,
        17.760799407958984
      ]
    },
    {
      "children": [
        82
      ],
      "name": "l_clavicle_00_skn_069_80",
      "rotation": [
        0.0,
        0.13488157093524933,
        0.0,
        0.990861713886261
      ],
      "translation": [
        2.116313934326172,
        12.76395034790039,
        -1.6936739683151245
      ]
    },
    {
      "children": [
        83
      ],
      "name": "l_upArm_00_skn_070_81",
      "rotation": [
        -1.4911264534641337e-26,
        -0.13488148152828217,
        -1.0954063365331078e-25,
        0.990861713886261
      ],
      "translation": [
        16.258420944213867,
        9.947598300641403e-14,
        -4.440892098500626e-15
      ]
    },
    {
      "children": [
        84
      ],
      "name": "l_lowArm_00_skn_071_82",
      "rotation": [
        -8.189386924228917e-25,
        -0.06440184265375137,
        1.5437447084375395e-25,
        0.9979240298271179
      ],
      "translation": [
        13.316720008850098,
        -1.4210854715202004e-14,
        2.6645352591003757e-15
      ]
    },
    {
      "children": [
        85
      ],
      "name": "l_radiusRibbon_03_skn_072_83",
      "rotation": [
        -2.8698592549372254e-42,
        2.7755575615628914e-17,
        1.0339757656912846e-25,
        1.0
      ],
      "translation": [
        6.2113752365112305,
        -1.4210854715202004e-14,
        2.1499850788586627e-09
      ]
    },
    {
      "children": [
        86,
        87,
        88,
        89
      ],
      "name": "l_wrist_00_skn_073_84",
      "rotation": [
        -2.362236566277212e-32,
        1.1423075108041303e-07,
        2.0679515313825692e-25,
        1.0
      ],
      "translation": [
        6.2113752365112305,
        7.105427357601002e-14,
        -4.010846907931409e-07
      ]
    },
    {
      "name": "l_index_01_skn_074_85",
      "rotation": [
        0.04317889362573624,
        -0.22547262907028198,
        -0.18033474683761597,
        0.9564397931098938
      ],
      "translation": [
        9.740994453430176,
        -0.024539820849895477,
        6.480372905731201
      ]
    },
    {
      "name": "l_middle_01_skn_075_86",
      "rotation": [
        0.006295284256339073,
        -0.07443778216838837,
        -0.10411109030246735,
        0.9917561411857605
      ],
      "translation": [
        11.348830223083496,
        -0.12091170251369476,
        0.9202808141708374
      ]
    },
    {
      "name": "l_pinky_01_skn_076_87",
      "rotation": [
        -0.013100381009280682,
        0.09310369938611984,
        -0.13865406811237335,
        0.9858676791191101
      ],
      "translation": [
        11.482939720153809,
        -0.49658840894699097,
        -4.9141058921813965
      ]
    },
    {
      "children": [
        90
      ],
      "name": "l_thumb_00_skn_077_88",
      "rotation": [
        -8.271806125530277e-25,
        -0.0,
        0.0,
        1.0
      ],
      "translation": [
        3.27478289604187,
        -0.8785356879234314,
        0.9352697134017944
      ]
    },
    {
      "name": "l_thumb_01_skn_078_89",
      "rotation": [
        0.3884076774120331,
        -0.6918284893035889,
        0.04879581183195114,
        0.6067386865615845
      ],
      "translation": [
        0.6186776757240295,
        -2.010045051574707,
        5.14137077331543
      ]
    },
    {
      "children": [
        92
      ],
      "name": "r_clavicle_00_skn_079_90",
      "rotation": [
        0.990861713886261,
        -8.420702341558966e-16,
        0.13488157093524933,
        5.507874752912941e-17
      ],
      "translation": [
        -2.116313934326172,
        12.76395034790039,
        -1.6936739683151245
      ]
    },
    {
      "children": [
        93
      ],
      "name": "r_upArm_00_skn_080_91",
      "rotation": [
        1.1109579404186349e-24,
        -0.13488148152828217,
        8.197396266347457e-18,
        0.990861713886261
      ],
      "translation": [
        -16.258420944213867,
        -5.684341886080802e-14,
        -1.7763568394002505e-14
      ]
    },
    {
      "children": [
        94
      ],
      "name": "r_lowArm_00_skn_081_92",
      "rotation": [
        -1.4511812242812e-24,
        -0.06440184265375137,
        2.0500037800417e-18,
        0.9979240298271179
      ],
      "translation": [
        -13.316720008850098,
        -4.263256414560601e-14,
        0.0
      ]
    },
    {
      "children": [
        95
      ],
      "name": "r_radiusRibbon_03_skn_082_93",
      "rotation": [
        8.271806125530277e-25,
        -2.7755575615628914e-17,
        -1.0339757656912846e-25,
        1.0
      ],
      "translation": [
        -6.2113752365112305,
        -1.4210854715202004e-14,
        -2.0190906724337765e-09
      ]
    },
    {
      "children": [
        96,
        97,
        98,
        99
      ],
      "name": "r_wrist_00_skn_083_94",
      "rotation": [
        4.6063575206181215e-31,
        1.1423066581528474e-07,
        -4.03250548619601e-24,
        1.0
      ],
      "translation": [
        -6.2113752365112305,
        1.4210854715202004e-14,
        4.0048900018518907e-07
      ]
    },
    {
      "name": "r_index_01_skn_084_95",
      "rotation": [
        0.04317889362573624,
        -0.22547262907028198,
        -0.18033474683761597,
        0.9564397931098938
      ],
      "translation": [
        -9.740994453430176,
        0.024539820849895477,
        -6.480372905731201
      ]
    },
    {
      "name": "r_middle_01_skn_085_96",
      "rotation": [
        0.006295284256339073,
        -0.07443778216838837,
        -0.10411109030246735,
        0.9917561411857605
      ],
      "translation": [
        -11.348830223083496,
        0.12091170251369476,
        -0.9202808141708374
      ]
    },
    {
      "name": "r_pinky_01_skn_086_97",
      "rotation": [
        -0.013080409727990627,
        0.0931008830666542,
        -0.13865596055984497,
        0.985867977142334
      ],
      "translation": [
        -11.482939720153809,
        0.49658840894699097,
        4.9141058921813965
      ]
    },
    {
      "children": [
        100
      ],
      "name": "r_thumb_00_skn_087_98",
      "rotation": [
        0.0,
        0.0,
        1.0339757656912846e-25,
        1.0
      ],
      "translation": [
        -3.27478289604187,
        0.8785356879234314,
        -0.9352697134017944
      ]
    },
    {
      "name": "r_thumb_01_skn_088_99",
      "rotation": [
        0.3884076774120331,
        -0.6918284893035889,
        0.04879581183195114,
        0.6067386865615845
      ],
      "translation": [
        -0.6186776757240295,
        2.010045051574707,
        -5.14137077331543
      ]
    },
    {
      "children": [
        102
      ],
      "name": "c_tail_00_skn_089_100",
      "rotation": [
        -0.15043571591377258,
        0.690919041633606,
        -0.15043571591377258,
        0.690919041633606
      ],
      "translation": [
        0.0,
        4.808611869812012,
        -17.0
      ]
    },
    {
      "children": [
        103
      ],
      "name": "c_tail_01_skn_090_101",
      "rotation": [
        -2.9661677137299617e-35,
        1.5404584389522335e-33,
        0.01925152912735939,
        0.9998146891593933
      ],
      "translation": [
        9.332975387573242,
        -1.4210854715202004e-14,
        -4.144674088933957e-15
      ]
    },
    {
      "children": [
        104
      ],
      "name": "c_tail_02_skn_091_102",
      "rotation": [
        5.393390461669067e-20,
        -1.0385025398662559e-21,
        0.022880541160702705,
        0.9997382164001465
      ],
      "translation": [
        9.332975387573242,
        4.263256414560601e-14,
        -1.0361679928378971e-15
      ]
    },
    {
      "children": [
        105
      ],
      "name": "c_tail_03_skn_092_103",
      "rotation": [
        2.784104084709608e-19,
        -5.9098569137672454e-21,
        0.05397098511457443,
        0.9985424876213074
      ],
      "translation": [
        9.332975387573242,
        7.105427357601002e-15,
        -1.0361679928378971e-15
      ]
    },
    {
      "children": [
        106
      ],
      "name": "c_tail_04_skn_093_104",
      "rotation": [
        9.504032268632145e-19,
        -3.768368298914502e-20,
        0.08082742244005203,
        0.9967281222343445
      ],
      "translation": [
        9.332975387573242,
        2.842170943040401e-14,
        -1.0580529948543433e-15
      ]
    },
    {
      "name": "c_tail_05_skn_094_105",
      "rotation": [
        3.029358483440635e-19,
        -1.128990771480983e-19,
        0.05988889932632446,
        0.9982050657272339
      ],
      "translation": [
        9.332975387573242,
        0.0,
        -1.081727036334509e-15
      ]
    },
    {
      "children": [
        108,
        111
      ],
      "name": "l_upLeg_00_skn_095_106",
      "rotation": [
        0.4898647665977478,
        -0.5099338293075562,
        -0.4898647665977478,
        0.5099338293075562
      ],
      "translation": [
        10.760290145874023,
        0.4600819945335388,
        -1.4794269800186157
      ]
    },
    {
      "children": [
        109
      ],
      "name": "l_lowLeg_00_skn_096_107",
      "rotation": [
        -6.956552609292258e-35,
        -3.465834890804125e-33,
        -0.02006775327026844,
        0.999798595905304
      ],
      "translation": [
        19.21656036376953,
        3.885780586188048e-15,
        -7.105427357601002e-15
      ]
    },
    {
      "children": [
        110
      ],
      "name": "l_foot_00_skn_097_108",
      "rotation": [
        1.1819329414731852e-18,
        2.3723515734213825e-20,
        0.48102834820747375,
        0.8767050504684448
      ],
      "translation": [
        13.568860054016113,
        4.551914400963142e-15,
        -3.552713678800501e-15
      ]
    },
    {
      "name": "l_ball_00_skn_098_109",
      "rotation": [
        -1.3762235639324474e-17,
        7.942019968653348e-18,
        0.2797844707965851,
        0.9600628614425659
      ],
      "translation": [
        8.425079345703125,
        5.3290705182007514e-15,
        5.3290705182007514e-15
      ]
    },
    {
      "name": "SLOT_TOM_FUR_anchor_099_110",
      "rotation": [
        -0.4898647964000702,
        0.5099338293075562,
        0.4898647964000702,
        0.5099338293075562
      ],
      "scale": [
        1.0,
        1.0000001192092896,
        1.0000001192092896
      ],
      "translation": [
        6.985254764556885,
        -5.723721027374268,
        -4.17682409286499
      ]
    },
    {
      "children": [
        113
      ],
      "name": "r_upLeg_00_skn_0100_111",
      "rotation": [
        0.5099338293075562,
        0.4898647964000702,
        -0.5099338293075562,
        -0.4898647964000702
      ],
      "translation": [
        -10.760290145874023,
        0.46008190512657166,
        -1.4794269800186157
      ]
    },
    {
      "children": [
        114
      ],
      "name": "r_lowLeg_00_skn_0101_112",
      "rotation": [
        1.880908969928223e-34,
        9.370905048220962e-33,
        -0.02006775327026844,
        0.999798595905304
      ],
      "translation": [
        -19.21656036376953,
        -2.098321516541546e-14,
        1.5987211554602254e-14
      ]
    },
    {
      "children": [
        115
      ],
      "name": "r_foot_00_skn_0102_113",
      "rotation": [
        -1.1819329414731852e-18,
        -2.3723515734213825e-20,
        0.48102834820747375,
        0.8767050504684448
      ],
      "translation": [
        -13.568860054016113,
        -7.95686894150549e-09,
        8.881784197001252e-15
      ]
    },
    {
      "name": "r_ball_00_skn_0103_114",
      "rotation": [
        -3.219187760805653e-08,
        -9.381454724177729e-09,
        0.2797844707965851,
        0.9600628614425659
      ],
      "translation": [
        -8.425079345703125,
        -1.0968359731577948e-07,
        3.375077994860476e-14
      ]
    },
    {
      "children": [
        117
      ],
      "matrix": [
        1.0000000000000002,
        0.0,
        0.0,
        0.0,
        0.0,
        1.0,
        0.0,
        0.0,
        0.0,
        0.0,
        1.0,
        0.0,
        0.0,
        0.0,
        0.0,
        1.0
      ],
      "name": "Object_7_7_correction"
    },
    {
      "name": "Object_7_7"
    },
    {
      "mesh": 0,
      "name": "Object_118",
      "skin": 0
    },
    {
      "children": [
        120
      ],
      "matrix": [
        1.0000000000000002,
        0.0,
        0.0,
        0.0,
        0.0,
        1.0,
        0.0,
        0.0,
        0.0,
        0.0,
        1.0,
        0.0,
        0.0,
        0.0,
        0.0,
        1.0
      ],
      "name": "Object_9_9_correction"
    },
    {
      "name": "Object_9_9"
    },
    {
      "mesh": 1,
      "name": "Object_121",
      "skin": 0
    },
    {
      "children": [
        123
      ],
      "matrix": [
        1.0000000000000002,
        0.0,
        0.0,
        0.0,
        0.0,
        1.0,
        0.0,
        0.0,
        0.0,
        0.0,
        1.0,
        0.0,
        0.0,
        0.0,
        0.0,
        1.0
      ],
      "name": "Object_10_10_correction"
    },
    {
      "name": "Object_10_10"
    },
    {
      "mesh": 2,
      "name": "Object_124",
      "skin": 0
    }
  ],
  "samplers": [
    {
      "magFilter": 9729,
      "minFilter": 9987,
      "wrapS": 10497,
      "wrapT": 10497
    }
  ],
  "scene": 0,
  "scenes": [
    {
      "name": "Sketchfab_Scene",
      "nodes": [
        0
      ]
    }
  ],
  "skins": [
    {
      "inverseBindMatrices": 14,
      "joints": [
        10,
        11,
        12,
        13,
        14,
        15,
        16,
        17,
        18,
        19,
        20,
        21,
        22,
        23,
        24,
        25,
        26,
        27,
        28,
        29,
        30,
        31,
        32,
        33,
        34,
        35,
        36,
        37,
        38,
        39,
        40,
        41,
        42,
        43,
        44,
        45,
        46,
        47,
        48,
        49,
        50,
        51,
        52,
        53,
        54,
        55,
        56,
        57,
        58,
        59,
        60,
        61,
        62,
        63,
        64,
        65,
        66,
        67,
        68,
        69,
        70,
        71,
        72,
        73,
        74,
        75,
        76,
        77,
        78,
        79,
        80,
        81,
        82,
        83,
        84,
        85,
        86,
        87,
        88,
        89,
        90,
        91,
        92,
        93,
        94,
        95,
        96,
        97,
        98,
        99,
        100,
        101,
        102,
        103,
        104,
        105,
        106,
        107,
        108,
        109,
        110,
        111,
        112,
        113,
        114,
        115
      ],
      "skeleton": 10
    }
  ],
  "textures": [
    {
      "sampler": 0,
      "source": 0
    },
    {
      "sampler": 0,
      "source": 1
    }
  ]
}
